{"title":"Cheating Wife While Friends Talk Hubby[VPSR].mp4","uid":10757013,"size":128313672,"categoryP":"porn","categoryS":"other","magnet":"?xt=urn:btih:d65af151194d05bc1f10335e01f4272d1025705f&amp;dn=Cheating+Wife+While+Friends+Talk+Hubby%5BVPSR%5D.mp4&amp;tr=udp%3A%2F%2Ftracker.openbittorrent.com%3A80&amp;tr=udp%3A%2F%2Fopen.demonii.com%3A1337&amp;tr=udp%3A%2F%2Ftracker.coppersurfer.tk%3A6969&amp;tr=udp%3A%2F%2Fexodus.desync.com%3A6969","seeders":1,"leechers":1,"uploader":"vpsr","files":1,"time":1407941999,"description":"Cheating Wife While Friends Talk Hubby[VPSR].mp4\n &lt;a href=&quot;\nhttp://s25.postimg.org/49mjwnijj/cheating.jpg&quot; rel=&quot;nofollow&quot; target=&quot;_NEW&quot;&gt;\nhttp://s25.postimg.org/49mjwnijj/cheating.jpg&lt;/a&gt;\n\n &lt;a href=&quot;\nhttp://s25.postimg.org/ycwhauwf3/Cheating_Wife_While_Friends_Talk_Hubby.jpg&quot; rel=&quot;nofollow&quot; target=&quot;_NEW&quot;&gt;\nhttp://s25.postimg.org/ycwhauwf3/Cheating_Wife_While_Friends_Talk_Hubby.jpg&lt;/a&gt;\n\nFILE INFO\n\n\nGeneral\nComplete name                            : Cheating Wife While Friends Talk Hubby.mp4\nFormat                                   : MPEG-4\nFormat profile                           : Base Media\nCodec ID                                 : isom\nFile size                                : 122 MiB\nDuration                                 : 28mn 7s\nOverall bit rate                         : 608 Kbps\nWriting application                      : Lavf53.5.0\n\nVideo\nID                                       : 1\nFormat                                   : AVC\nFormat/Info                              : Advanced Video Codec\nFormat profile                           : &lt;a class=&quot;__cf_email__&quot; href=&quot;/cdn-cgi/l/email-protection&quot; data-cfemail=&quot;165e7f717e565a243826&quot;&gt;[email&amp;#160;protected]&lt;/a&gt;&lt;script cf-hash='f9e31' type=&quot;text/javascript&quot;&gt;\n/* &lt;![CDATA[ */!function(){try{var t=&quot;currentScript&quot;in document?document.currentScript:function(){for(var t=document.getElementsByTagName(&quot;script&quot;),e=t.length;e--;)if(t[e].getAttribute(&quot;cf-hash&quot;))return t[e]}();if(t&amp;&amp;t.previousSibling){var e,r,n,i,c=t.previousSibling,a=c.getAttribute(&quot;data-cfemail&quot;);if(a){for(e=&quot;&quot;,r=parseInt(a.substr(0,2),16),n=2;a.length-n;n+=2)i=parseInt(a.substr(n,2),16)^r,e+=String.fromCharCode(i);e=document.createTextNode(e),c.parentNode.replaceChild(e,c)}}}catch(u){}}();/* ]]&gt; */&lt;/script&gt;\nFormat settings, CABAC                   : Yes\nFormat settings, ReFrames                : 4 frames\nCodec ID                                 : avc1\nCodec ID/Info                            : Advanced Video Coding\nDuration                                 : 28mn 7s\nBit rate                                 : 512 Kbps\nWidth                                    : 320 pixels\nHeight                                   : 240 pixels\nDisplay aspect ratio                     : 4:3\nFrame rate mode                          : Variable\nFrame rate                               : 19.981 fps\nMinimum frame rate                       : 11.988 fps\nMaximum frame rate                       : 23.976 fps\nColor space                              : YUV\nChroma subsampling                       : 4:2:0\nBit depth                                : 8 bits\nScan type                                : Progressive\nBits/(Pixel*Frame)                       : 0.334\nStream size                              : 103 MiB (84%)\nWriting library                          : x264 core 119\n\nAudio\nID                                       : 2\nFormat                                   : AAC\nFormat/Info                              : Advanced Audio Codec\nFormat profile                           : LC\nCodec ID                                 : 40\nDuration                                 : 28mn 7s\nBit rate mode                            : Constant\nBit rate                                 : 59.0 Kbps\nChannel(s)                               : 2 channels\nChannel positions                        : Front: L R\nSampling rate                            : 44.1 KHz\nCompression mode                         : Lossy\nStream size                              : 11.9 MiB (10%)\n\nOther #1\nID                                       : 65536\nType                                     : Hint\nFormat                                   : RTP\nCodec ID                                 : rtp \nDuration                                 : 28mn 7s\n\nOther #2\nID                                       : 65537\nType                                     : Hint\nFormat                                   : RTP\nCodec ID                                 : rtp \nDuration                                 : 28mn 7s\nBit rate mode                            : VBR\n\n","torrent":{"xt":"urn:btih:d65af151194d05bc1f10335e01f4272d1025705f","amp;dn":"Cheating+Wife+While+Friends+Talk+Hubby%5BVPSR%5D.mp4","amp;tr":["udp%3A%2F%2Ftracker.openbittorrent.com%3A80","udp%3A%2F%2Fopen.demonii.com%3A1337","udp%3A%2F%2Ftracker.coppersurfer.tk%3A6969","udp%3A%2F%2Fexodus.desync.com%3A6969"],"infoHash":"d65af151194d05bc1f10335e01f4272d1025705f","infoHashBuffer":{"type":"Buffer","data":[214,90,241,81,25,77,5,188,31,16,51,94,1,244,39,45,16,37,112,95]},"announce":[],"urlList":[]}}